<svg width="18" height="11" viewBox="0 0 18 11" fill="none" xmlns="http://www.w3.org/2000/svg">
<g clip-path="url(#clip0_417_141)">
<path d="M17.4228 0.826445C17.2062 0.610062 16.9124 0.488525 16.6062 0.488525C16.3 0.488525 16.0063 0.610062 15.7896 0.826445L8.91281 7.70324L2.01692 0.835996C1.79772 0.632618 1.50822 0.522118 1.20925 0.527713C0.910286 0.533308 0.625125 0.654564 0.413687 0.866002C0.202249 1.07744 0.0809934 1.3626 0.0753979 1.66157C0.0698024 1.96053 0.180303 2.25003 0.383681 2.46923L8.02456 10.1101C8.22095 10.2987 8.47854 10.4106 8.75044 10.4253H8.84595C8.99813 10.4264 9.14903 10.3974 9.28999 10.3401C9.43095 10.2827 9.55919 10.1981 9.66735 10.091L17.4228 2.45968C17.6392 2.243 17.7608 1.94929 17.7608 1.64306C17.7608 1.33684 17.6392 1.04313 17.4228 0.826445Z" fill="#212121"/>
</g>
<defs>
<clipPath id="clip0_417_141">
<rect width="17.6886" height="10" fill="white" transform="translate(0.0400391 0.492188)"/>
</clipPath>
</defs>
</svg>
