<svg width="21" height="21" viewBox="0 0 21 21" fill="none" xmlns="http://www.w3.org/2000/svg">
<g clip-path="url(#clip0_417_9194)">
<g clip-path="url(#clip1_417_9194)">
<g clip-path="url(#clip2_417_9194)">
<g clip-path="url(#clip3_417_9194)">
<path d="M6.68474 3.82995C6.48474 3.47995 6.25141 3.15495 6.01808 2.84661L5.78474 2.52995C5.50141 2.14661 5.23474 1.78828 4.92641 1.46328C4.70974 1.23828 4.45141 0.988281 4.12641 0.838281C3.97641 0.771615 3.84308 0.738281 3.70974 0.738281C3.64308 0.738281 3.58474 0.738281 3.51808 0.763281C3.29308 0.821615 3.08474 0.954948 2.84308 1.19661L2.63474 1.41328C2.48474 1.57161 2.34308 1.72161 2.18474 1.86328C1.80974 2.19661 1.50141 2.53828 1.24308 2.90495C0.90141 3.38828 0.634743 3.91328 0.443077 4.47995C0.168077 5.27161 0.0597432 6.10495 0.10141 6.96328C0.118077 7.28828 0.159743 7.62161 0.22641 7.95495C0.293077 8.30495 0.37641 8.65495 0.484743 9.01328C0.693077 9.72161 1.01808 10.4466 1.45974 11.2383C1.81808 11.8716 2.23474 12.4966 2.72641 13.1466C3.34308 13.9633 4.00974 14.7299 4.70974 15.4299C5.22641 15.9466 5.75141 16.4549 6.29308 16.9466C6.77641 17.3966 7.33474 17.8466 8.00141 18.3299C8.56808 18.7466 9.11808 19.0966 9.66808 19.4049C10.6681 19.9633 11.6181 20.3299 12.5597 20.5383C13.3014 20.7049 14.0764 20.7633 14.7264 20.7133C15.2514 20.6633 15.6597 20.5883 16.0514 20.4799C16.6681 20.3049 17.2431 20.0383 17.7514 19.6966C18.1514 19.4299 18.5097 19.1299 18.8097 18.8049L19.1014 18.4966C19.2097 18.3883 19.3097 18.2799 19.4181 18.1633L19.5431 18.0299C19.6681 17.8966 19.8014 17.7633 19.9097 17.6133C20.1514 17.2799 20.1681 16.9466 19.9597 16.5633C19.8097 16.2966 19.6014 16.0383 19.3014 15.7883C19.0347 15.5549 18.7514 15.3383 18.4681 15.1299C18.0681 14.8299 17.6681 14.5383 17.2597 14.2633C16.9014 14.0216 16.5181 13.8383 16.1431 13.7383C15.8681 13.6633 15.6181 13.6466 15.3681 13.6883C15.0931 13.7383 14.8431 13.8549 14.6347 14.0383C14.4264 14.2216 14.2347 14.4133 14.0431 14.6133C13.8764 14.7799 13.7181 14.9549 13.5597 15.1299L13.4097 15.3049C13.3181 15.4133 13.2264 15.5299 13.1181 15.6299C12.8014 15.9383 12.4264 16.1216 11.9847 16.1716C11.5347 16.2216 11.0681 16.1383 10.5347 15.9049C9.80141 15.5799 9.17641 15.1049 8.70974 14.7216C8.13474 14.2466 7.55974 13.7049 6.95141 13.0633C6.29308 12.3716 5.82641 11.8049 5.44308 11.2216C5.07641 10.6716 4.85974 10.2133 4.74308 9.73828C4.65141 9.37162 4.63474 9.03828 4.69308 8.72161C4.77641 8.28828 5.00141 7.89661 5.36808 7.56328C5.44308 7.49661 5.52641 7.42995 5.60974 7.36328C5.68474 7.30495 5.76808 7.23828 5.83474 7.17161C5.99308 7.02995 6.13474 6.87995 6.28474 6.72995L6.44308 6.56328C6.60141 6.40495 6.75141 6.25495 6.85974 6.08828C7.11808 5.70495 7.19308 5.28828 7.09308 4.81328C7.02641 4.51328 6.90141 4.20495 6.69308 3.83828L6.68474 3.82995Z" fill="#F16419"/>
</g>
</g>
</g>
</g>
<defs>
<clipPath id="clip0_417_9194">
<rect width="20" height="20" fill="white" transform="translate(0.0927734 0.738281)"/>
</clipPath>
<clipPath id="clip1_417_9194">
<rect width="20" height="20" fill="white" transform="translate(0.0927734 0.738281)"/>
</clipPath>
<clipPath id="clip2_417_9194">
<rect width="20" height="20" fill="white" transform="translate(0.0927734 0.738281)"/>
</clipPath>
<clipPath id="clip3_417_9194">
<rect width="20" height="20" fill="white" transform="translate(0.0927734 0.738281)"/>
</clipPath>
</defs>
</svg>
