<svg width="32" height="32" viewBox="0 0 32 32" fill="none" xmlns="http://www.w3.org/2000/svg">
<g clip-path="url(#clip0_417_8941)">
<path d="M14.5485 0.599609C14.7094 0.661015 14.8451 0.774355 14.9342 0.921658C15.0233 1.06896 15.0607 1.2418 15.0405 1.41276C15.0405 5.72277 15.0405 10.0361 15.0405 14.3528C15.0652 14.4634 15.0615 14.5784 15.0299 14.6872C14.9983 14.796 14.9397 14.895 14.8596 14.9751C14.7795 15.0553 14.6805 15.1138 14.5717 15.1454C14.4629 15.177 14.3479 15.1807 14.2373 15.156H1.34744C1.1702 15.186 0.988043 15.1533 0.832304 15.0635C0.676564 14.9737 0.556985 14.8325 0.494141 14.6641V1.07144L0.965967 0.599609H14.5485ZM1.79919 13.8208H13.8458V1.88458H1.79919V13.8208Z" fill="#0078BE" stroke="#0078BE" stroke-width="0.602332" stroke-miterlimit="10"/>
<path d="M30.4493 0.599609C30.6113 0.673218 30.7454 0.796736 30.8321 0.952085C30.9188 1.10743 30.9535 1.28646 30.9312 1.46295C30.9312 5.7462 30.9312 10.0261 30.9312 14.3027C30.9609 14.4206 30.9596 14.5442 30.9272 14.6614C30.8949 14.7787 30.8327 14.8855 30.7467 14.9715C30.6607 15.0575 30.5539 15.1197 30.4366 15.152C30.3194 15.1844 30.1958 15.1857 30.0779 15.156H17.2281C17.1085 15.1887 16.9824 15.1892 16.8625 15.1574C16.7427 15.1257 16.6333 15.0628 16.5457 14.9751C16.458 14.8874 16.3951 14.7781 16.3633 14.6582C16.3315 14.5383 16.332 14.4122 16.3648 14.2926C16.3648 10.0094 16.3648 5.72947 16.3648 1.45291C16.341 1.27763 16.3765 1.09942 16.4656 0.946622C16.5547 0.793826 16.6924 0.675215 16.8567 0.609648H30.4493V0.599609ZM29.606 1.88458H17.5594V13.8208H29.606V1.88458Z" fill="#0078BE" stroke="#0078BE" stroke-width="0.602332" stroke-miterlimit="10"/>
<path d="M0.494141 16.9226C0.555547 16.7618 0.668887 16.6261 0.816189 16.537C0.963492 16.4479 1.13633 16.4105 1.30729 16.4307H14.2775C14.3881 16.406 14.5031 16.4097 14.6119 16.4413C14.7206 16.4729 14.8197 16.5314 14.8998 16.6116C14.9799 16.6917 15.0385 16.7907 15.0701 16.8995C15.1017 17.0083 15.1053 17.1233 15.0806 17.2339C15.0806 21.5439 15.0806 25.8539 15.0806 30.1639C15.1079 30.2775 15.1056 30.3962 15.0739 30.5086C15.0422 30.621 14.9821 30.7234 14.8995 30.806C14.8169 30.8886 14.7145 30.9486 14.6021 30.9803C14.4897 31.012 14.371 31.0144 14.2574 30.9871H1.35748C1.18179 31.0136 1.00227 30.9818 0.846357 30.8966C0.690448 30.8114 0.566736 30.6774 0.494141 30.5153V16.9226ZM1.80923 29.7021H13.8559V17.7157H1.80923V29.7021Z" fill="#0078BE" stroke="#0078BE" stroke-width="0.602332" stroke-miterlimit="10"/>
<path d="M23.653 16.4308H30.0578C30.1781 16.4005 30.3042 16.4021 30.4237 16.4354C30.5431 16.4687 30.6518 16.5327 30.739 16.6209C30.8262 16.7091 30.8889 16.8185 30.9208 16.9383C30.9528 17.0582 30.9529 17.1843 30.9212 17.3042C30.9212 21.5741 30.9212 25.8473 30.9212 30.1238C30.9529 30.2437 30.9528 30.3698 30.9208 30.4897C30.8889 30.6095 30.8262 30.7189 30.739 30.8072C30.6518 30.8954 30.5431 30.9593 30.4237 30.9926C30.3042 31.0259 30.1781 31.0275 30.0578 30.9972H17.2081C17.0925 31.0264 16.9714 31.0253 16.8563 30.994C16.7413 30.9626 16.6363 30.9021 16.5515 30.8184C16.4667 30.7346 16.405 30.6303 16.3723 30.5157C16.3396 30.401 16.337 30.2799 16.3648 30.164C16.3648 25.8606 16.3648 21.5573 16.3648 17.254C16.3376 17.1404 16.3399 17.0217 16.3716 16.9093C16.4033 16.7969 16.4633 16.6945 16.5459 16.6119C16.6285 16.5293 16.7309 16.4693 16.8433 16.4376C16.9558 16.4059 17.0744 16.4035 17.188 16.4308H23.653ZM29.6764 29.7122V17.6656H17.6498V29.7122H29.6061H29.6764Z" fill="#0078BE" stroke="#0078BE" stroke-width="0.602332" stroke-miterlimit="10"/>
</g>
<defs>
<clipPath id="clip0_417_8941">
<rect width="31" height="31" fill="white" transform="translate(0.222656 0.29834)"/>
</clipPath>
</defs>
</svg>
