<svg width="32" height="32" viewBox="0 0 32 32" fill="none" xmlns="http://www.w3.org/2000/svg">
<g clip-path="url(#clip0_417_8950)">
<path d="M13.5368 30.8983C13.0247 30.7538 12.582 30.4294 12.2899 29.9847C11.9977 29.54 11.8757 29.0049 11.9463 28.4776C11.9463 27.7573 11.9463 27.0471 11.9463 26.3269C11.9781 25.6214 11.8382 24.9187 11.5385 24.2792C11.2388 23.6397 10.7883 23.0826 10.2257 22.6557C9.25452 21.881 8.45415 20.9138 7.87497 19.8148C7.29694 18.6787 6.97283 17.4305 6.92511 16.1567C6.87739 14.8829 7.10719 13.614 7.59859 12.4378C8.09 11.2616 8.83125 10.2064 9.77099 9.34515C10.7107 8.48392 11.8265 7.83731 13.041 7.45012C14.2554 7.06293 15.5395 6.94442 16.8043 7.10281C18.0692 7.2612 19.2844 7.69269 20.3659 8.3674C21.4474 9.0421 22.3692 9.94387 23.0676 11.0102C23.7659 12.0766 24.2241 13.2821 24.4103 14.5431C24.6786 16.0162 24.541 17.5345 24.0124 18.9354C23.4838 20.3363 22.5839 21.567 21.4093 22.4956C20.7957 22.9608 20.304 23.5679 19.9765 24.2648C19.6489 24.9617 19.4953 25.7276 19.5287 26.4969C19.5287 27.2872 19.5287 28.0674 19.5287 28.8577C19.5558 29.3178 19.4174 29.7723 19.1385 30.1392C18.8597 30.5062 18.4587 30.7612 18.0082 30.8583H17.9282H13.5368V30.8983ZM18.2283 25.8967C18.3201 25.0379 18.5813 24.2058 18.9969 23.4486C19.4124 22.6913 19.974 22.0241 20.6491 21.4853C21.6869 20.6469 22.468 19.5336 22.9032 18.2724C23.3383 17.0112 23.4099 15.653 23.1099 14.353C22.9331 13.3931 22.5686 12.4776 22.0371 11.6589C21.5056 10.8403 20.8177 10.1347 20.0128 9.58257C19.2079 9.03049 18.3019 8.6428 17.3468 8.44177C16.3916 8.24073 15.4062 8.23031 14.4471 8.41109C13.4383 8.59881 12.4777 8.98773 11.6225 9.55467C10.7673 10.1216 10.035 10.855 9.46927 11.711C8.90356 12.567 8.51602 13.5282 8.32976 14.5372C8.1435 15.5463 8.16233 16.5825 8.38513 17.584C8.7549 19.2175 9.6771 20.6732 10.996 21.7054C12.0723 22.5069 12.8192 23.6735 13.0966 24.9864C13.1567 25.2765 13.1867 25.5866 13.2267 25.8967H18.2283ZM13.2267 27.1871C13.2267 27.8474 13.2267 28.4976 13.2267 29.1378C13.2239 29.2108 13.2362 29.2836 13.2628 29.3516C13.2895 29.4196 13.3299 29.4814 13.3816 29.5331C13.4332 29.5847 13.495 29.6252 13.563 29.6518C13.6311 29.6785 13.7039 29.6908 13.7769 29.688C15.0573 29.688 16.3277 29.688 17.6081 29.688C17.6955 29.692 17.7826 29.6765 17.8633 29.6427C17.9439 29.6089 18.016 29.5576 18.0744 29.4925C18.1328 29.4274 18.176 29.3501 18.2009 29.2663C18.2258 29.1825 18.2317 29.0941 18.2183 29.0077C18.2183 28.4876 18.2183 28.0074 18.2183 27.4472C18.2183 27.3672 18.2183 27.2772 18.2183 27.1971H13.2167L13.2267 27.1871Z" fill="#0078BE" stroke="#0078BE" stroke-width="0.800258" stroke-miterlimit="10"/>
<path d="M0.622308 15.6233C0.679699 15.4708 0.787123 15.3422 0.927028 15.2586C1.06693 15.1751 1.23105 15.1414 1.39256 15.1632H3.6933C3.77658 15.1505 3.86158 15.1553 3.94294 15.1771C4.0243 15.1989 4.10026 15.2373 4.16604 15.29C4.23182 15.3426 4.28599 15.4083 4.32514 15.4828C4.36429 15.5574 4.38757 15.6393 4.39353 15.7233C4.40961 15.8065 4.40727 15.8922 4.38669 15.9744C4.3661 16.0566 4.32777 16.1333 4.27437 16.1991C4.22098 16.2649 4.15383 16.3181 4.07764 16.3552C4.00144 16.3923 3.91806 16.4122 3.83334 16.4136C2.95306 16.4136 2.07278 16.4136 1.18249 16.4136C1.05386 16.4072 0.930259 16.3617 0.828317 16.283C0.726375 16.2043 0.650988 16.0963 0.612305 15.9734V15.6233H0.622308Z" fill="#0078BE" stroke="#0078BE" stroke-width="0.800258" stroke-miterlimit="10"/>
<path d="M30.8226 15.9736C30.7637 16.1251 30.656 16.2526 30.5165 16.3359C30.377 16.4193 30.2136 16.4537 30.0524 16.4337H27.7816C27.6596 16.4493 27.5356 16.4315 27.4228 16.3822C27.3101 16.3329 27.2128 16.2539 27.1414 16.1536C27.0717 16.064 27.0279 15.9569 27.0148 15.844C27.0018 15.7311 27.02 15.6169 27.0675 15.5136C27.115 15.4104 27.1899 15.3222 27.2841 15.2587C27.3783 15.1951 27.4881 15.1587 27.6016 15.1533C28.4819 15.1533 29.3621 15.1533 30.2524 15.1533C30.3823 15.1603 30.5068 15.2074 30.6089 15.288C30.711 15.3686 30.7856 15.4788 30.8226 15.6035V15.9536V15.9736Z" fill="#0078BE" stroke="#0078BE" stroke-width="0.800258" stroke-miterlimit="10"/>
<path d="M15.8781 0.718262C16.0228 0.768781 16.1465 0.865994 16.2298 0.994583C16.3131 1.12317 16.3513 1.27583 16.3383 1.42849C16.3383 2.20874 16.3383 2.999 16.3383 3.77925C16.3524 3.90296 16.3306 4.02811 16.2757 4.13982C16.2207 4.25154 16.1348 4.34512 16.0282 4.40945C15.9384 4.46745 15.8349 4.50082 15.7281 4.50623C15.6213 4.51164 15.515 4.48889 15.4197 4.44026C15.3245 4.39163 15.2437 4.31883 15.1855 4.22916C15.1272 4.13948 15.0936 4.03607 15.0879 3.9293C15.0879 3.04901 15.0879 2.16873 15.0879 1.27844C15.0976 1.14906 15.147 1.02582 15.2294 0.925564C15.3117 0.825305 15.423 0.752909 15.548 0.718262H15.8781Z" fill="#0078BE" stroke="#0078BE" stroke-width="0.800258" stroke-miterlimit="10"/>
<path d="M7.11485 8.011C6.98463 7.96918 6.86274 7.90485 6.75473 7.82094C6.16454 7.21075 5.58435 6.58054 5.01417 5.95034C4.93937 5.88122 4.88338 5.79421 4.85149 5.6975C4.81959 5.60078 4.81283 5.49753 4.83184 5.39748C4.85085 5.29743 4.895 5.20386 4.96015 5.12558C5.0253 5.0473 5.10929 4.98688 5.20423 4.95002C5.31261 4.88873 5.43831 4.86529 5.56149 4.8834C5.68467 4.90152 5.79831 4.96015 5.88445 5.05005C6.49131 5.64357 7.09484 6.2471 7.69503 6.86063C7.7881 6.94476 7.84899 7.05865 7.86724 7.18277C7.8855 7.30689 7.85998 7.4335 7.79507 7.54085C7.74249 7.67879 7.64935 7.79755 7.52792 7.88148C7.40648 7.96542 7.26246 8.01057 7.11485 8.011Z" fill="#0078BE" stroke="#0078BE" stroke-width="0.800258" stroke-miterlimit="10"/>
<path d="M25.8802 26.7261C25.6674 26.633 25.466 26.5156 25.2802 26.3761C24.7402 25.8761 24.2302 25.3761 23.7102 24.8161C23.6443 24.7672 23.5891 24.7053 23.5481 24.6342C23.5071 24.5631 23.4811 24.4843 23.4717 24.4028C23.4623 24.3212 23.4698 24.2386 23.4936 24.1601C23.5174 24.0815 23.5571 24.0087 23.6102 23.9461C23.6579 23.8767 23.72 23.8185 23.7924 23.7755C23.8648 23.7326 23.9457 23.7059 24.0294 23.6973C24.1131 23.6888 24.1977 23.6985 24.2773 23.726C24.3569 23.7534 24.4295 23.7978 24.4902 23.8561C25.1102 24.4561 25.7202 25.0661 26.3302 25.6861C26.4139 25.772 26.4678 25.8824 26.484 26.0012C26.5002 26.1201 26.4779 26.2409 26.4202 26.3461C26.4079 26.3996 26.3844 26.4499 26.3512 26.4937C26.3181 26.5375 26.2761 26.5738 26.2279 26.6003C26.1798 26.6267 26.1266 26.6426 26.0718 26.6471C26.0171 26.6516 25.962 26.6444 25.9102 26.6261L25.8802 26.7261Z" fill="#0078BE" stroke="#0078BE" stroke-width="0.800258" stroke-miterlimit="10"/>
<path d="M5.48444 26.6661C5.35666 26.6698 5.23064 26.6357 5.12215 26.5681C5.01365 26.5005 4.92749 26.4024 4.87444 26.2861C4.82365 26.1675 4.81178 26.0358 4.84053 25.9101C4.86928 25.7843 4.93717 25.6709 5.03444 25.5861C5.61444 25.0161 6.18444 24.4361 6.76444 23.8661C6.82078 23.8028 6.88951 23.7517 6.96637 23.7159C7.04324 23.6802 7.12662 23.6606 7.21135 23.6584C7.29608 23.6562 7.38037 23.6714 7.45901 23.703C7.53765 23.7346 7.60897 23.782 7.66857 23.8423C7.72816 23.9026 7.77476 23.9744 7.80549 24.0534C7.83622 24.1324 7.85042 24.2169 7.84722 24.3016C7.84402 24.3863 7.82349 24.4694 7.78689 24.5459C7.7503 24.6224 7.69841 24.6905 7.63444 24.7461C7.07444 25.3161 6.50444 25.8861 5.92444 26.4461C5.78967 26.5411 5.64133 26.6153 5.48444 26.6661Z" fill="#0078BE" stroke="#0078BE" stroke-width="0.800258" stroke-miterlimit="10"/>
<path d="M26.4704 5.71962C26.4208 5.84526 26.3535 5.96314 26.2704 6.06962C25.7204 6.62962 25.1704 7.18962 24.6104 7.73962C24.4985 7.84438 24.3586 7.91433 24.2077 7.94097C24.0568 7.9676 23.9013 7.94976 23.7604 7.88962C23.6877 7.84874 23.6248 7.79239 23.5762 7.72455C23.5277 7.65671 23.4946 7.57904 23.4793 7.49702C23.4641 7.415 23.467 7.33064 23.4879 7.24987C23.5088 7.16911 23.5472 7.09393 23.6004 7.02962C24.2104 6.37962 24.8504 5.75962 25.4904 5.12962C25.5738 5.05162 25.6802 5.00267 25.7938 4.99006C25.9073 4.97744 26.0218 5.00184 26.1204 5.05962C26.2395 5.12029 26.337 5.21621 26.3997 5.33432C26.4623 5.45242 26.487 5.58697 26.4704 5.71962Z" fill="#0078BE" stroke="#0078BE" stroke-width="0.800258" stroke-miterlimit="10"/>
<path d="M21.3795 15.5234C21.3795 16.1936 21.1094 16.5237 20.6493 16.4137C20.5069 16.3967 20.3756 16.3284 20.2798 16.2217C20.1841 16.1149 20.1305 15.9769 20.1291 15.8335C20.0962 15.4054 20.0293 14.9806 19.9291 14.5631C19.6606 13.6677 19.117 12.8795 18.3755 12.3104C17.634 11.7412 16.7321 11.4199 15.7977 11.3921C15.7005 11.4049 15.6016 11.3944 15.5092 11.3616C15.4168 11.3287 15.3335 11.2745 15.2662 11.2032C15.1988 11.1319 15.1493 11.0457 15.1217 10.9516C15.0941 10.8575 15.0893 10.7582 15.1075 10.6618C15.1161 10.5832 15.1404 10.507 15.1791 10.4379C15.2177 10.3688 15.2698 10.3082 15.3323 10.2597C15.3949 10.2112 15.4665 10.1757 15.543 10.1554C15.6195 10.1352 15.6994 10.1305 15.7777 10.1417C16.7604 10.1383 17.7264 10.3958 18.577 10.8879C19.4276 11.38 20.1324 12.089 20.6193 12.9426C21.0871 13.7246 21.3487 14.6126 21.3795 15.5234Z" fill="#0078BE" stroke="#0078BE" stroke-width="0.800258" stroke-miterlimit="10"/>
</g>
<defs>
<clipPath id="clip0_417_8950">
<rect width="31" height="31" fill="white" transform="translate(0.222656 0.29834)"/>
</clipPath>
</defs>
</svg>
