<svg width="27" height="33" viewBox="0 0 27 33" fill="none" xmlns="http://www.w3.org/2000/svg">
<g clip-path="url(#clip0_417_8973)">
<path d="M24.2972 32.6382H23.5577C22.2858 32.4311 21.5858 31.4057 20.8068 30.6662C20.5465 30.7189 20.283 30.7551 20.0181 30.7747H1.76778C1.62246 30.79 1.47555 30.7728 1.3377 30.7243C1.19984 30.6758 1.07448 30.5973 0.970686 30.4945C0.866889 30.3916 0.787251 30.267 0.737534 30.1296C0.687817 29.9922 0.669263 29.8454 0.683216 29.7C0.683216 21.0892 0.683216 12.4784 0.683216 3.86759C0.67235 3.72371 0.693199 3.57919 0.74429 3.44424C0.795382 3.30929 0.87547 3.1872 0.978904 3.08659C1.08234 2.98598 1.20659 2.90929 1.3429 2.86195C1.47921 2.81461 1.62425 2.79777 1.76778 2.81261H6.30324C6.30324 2.42808 6.30324 2.08299 6.30324 1.7379C6.33257 1.55897 6.41067 1.3916 6.52896 1.25418C6.64724 1.11676 6.80113 1.01462 6.9737 0.958984H14.8614C15.7488 1.32379 15.5713 2.10271 15.5713 2.81261H19.9589C20.121 2.77545 20.2898 2.77989 20.4497 2.82551C20.6096 2.87114 20.7554 2.95646 20.8735 3.07355C20.9916 3.19064 21.0781 3.33569 21.1251 3.4952C21.172 3.65472 21.1779 3.82352 21.1421 3.98591C21.1421 10.2567 21.1421 16.5241 21.1421 22.7883C21.1369 22.899 21.1563 23.0095 21.1989 23.1118C21.2415 23.2141 21.3063 23.3057 21.3886 23.3799C22.8971 24.8786 24.4056 26.3378 25.8944 27.8858C26.21 28.1931 26.4475 28.5714 26.587 28.9891C26.7266 29.4069 26.7642 29.852 26.6966 30.2872C26.629 30.7225 26.4583 31.1352 26.1987 31.491C25.9391 31.8468 25.5981 32.1354 25.2043 32.3325C24.9095 32.4557 24.6064 32.5579 24.2972 32.6382ZM19.2687 4.69581C18.0165 4.69581 16.8038 4.69581 15.5713 4.69581C15.514 4.71082 15.4606 4.73795 15.4147 4.77537C15.3688 4.81279 15.3314 4.85963 15.3051 4.91272C15.0829 5.40631 14.7205 5.82369 14.263 6.11294C13.8054 6.40219 13.2729 6.55055 12.7318 6.53957C11.5157 6.53957 10.2997 6.53957 9.08367 6.53957C8.54531 6.54888 8.01644 6.39711 7.56494 6.10372C7.11345 5.81034 6.75992 5.38873 6.54973 4.893C6.51806 4.82318 6.46404 4.7659 6.39619 4.73019C6.32835 4.69448 6.25055 4.68239 6.17506 4.69581H2.86221H2.596V28.9013H18.9927V28.8323C18.899 28.7698 18.8101 28.7006 18.7264 28.6253C16.5376 26.4364 14.3389 24.2673 12.1698 22.0587C10.8234 20.7196 10.0373 18.9182 9.97104 17.0204C9.94259 16.8718 9.95095 16.7185 9.99538 16.5739C10.0398 16.4293 10.119 16.2978 10.226 16.1908C10.3329 16.0838 10.4645 16.0046 10.6091 15.9602C10.7537 15.9158 10.907 15.9074 11.0556 15.9359C12.9318 16.0118 14.713 16.7812 16.0545 18.0951C17.0404 19.0811 18.0264 20.0671 19.0124 20.9939L19.2786 21.2404V4.69581H19.2687ZM14.5854 21.7925L14.7333 21.9503L22.9858 30.1831C23.1129 30.3191 23.2479 30.4475 23.3901 30.5676C23.512 30.67 23.6585 30.7389 23.8151 30.7675C23.9718 30.796 24.1332 30.7833 24.2834 30.7306C24.4336 30.6779 24.5675 30.5869 24.672 30.4667C24.7764 30.3465 24.8477 30.2012 24.8789 30.0451C24.9184 29.864 24.906 29.6754 24.8433 29.501C24.7805 29.3266 24.6698 29.1735 24.5239 29.0591L17.0207 21.5657L15.8474 20.4713L14.5854 21.7925ZM8.147 2.83233C8.147 3.1577 8.147 3.45349 8.147 3.74928C8.14163 3.87251 8.16145 3.99554 8.20524 4.11085C8.24904 4.22617 8.3159 4.33133 8.40172 4.41993C8.48755 4.50852 8.59054 4.57868 8.7044 4.62612C8.81827 4.67355 8.94061 4.69726 9.06395 4.69581H12.7712C12.9949 4.70235 13.2129 4.62508 13.3826 4.47915C13.5522 4.33323 13.6612 4.12917 13.6881 3.90703C13.7079 3.55565 13.7079 3.20343 13.6881 2.85204H8.147V2.83233ZM11.9923 17.9374C12.1831 18.8332 12.5892 19.669 13.1754 20.3727L14.4178 19.1008C13.7137 18.525 12.882 18.1261 11.9923 17.9374Z" fill="#0078BE"/>
<path d="M10.9278 8.38315H16.4295C16.6753 8.38315 16.911 8.48079 17.0848 8.65461C17.2587 8.82842 17.3563 9.06415 17.3563 9.30996C17.3563 9.55577 17.2587 9.7915 17.0848 9.96531C16.911 10.1391 16.6753 10.2368 16.4295 10.2368H5.40636C5.24016 10.2473 5.07425 10.2123 4.92642 10.1356C4.7786 10.059 4.65444 9.94348 4.56728 9.80159C4.48012 9.6597 4.43324 9.49675 4.43168 9.33023C4.43012 9.16371 4.47394 8.99991 4.55842 8.85641C4.65058 8.70027 4.78401 8.57255 4.94404 8.48732C5.10408 8.40208 5.28451 8.36263 5.46552 8.37329H10.9376L10.9278 8.38315Z" fill="#0078BE"/>
<path d="M10.9373 13.9539H5.4356C5.18979 13.9539 4.95406 13.8563 4.78025 13.6825C4.60644 13.5087 4.50879 13.2729 4.50879 13.0271C4.50879 12.7813 4.60644 12.5456 4.78025 12.3718C4.95406 12.1979 5.18979 12.1003 5.4356 12.1003H16.4094C16.57 12.0784 16.7335 12.099 16.8836 12.16C17.0338 12.221 17.1653 12.3203 17.265 12.448C17.3648 12.5757 17.4293 12.7274 17.4522 12.8878C17.4751 13.0482 17.4555 13.2118 17.3954 13.3623C17.3136 13.5517 17.1745 13.7106 16.9976 13.8167C16.8207 13.9229 16.615 13.9708 16.4094 13.9539H10.9373Z" fill="#0078BE"/>
<path d="M7.21016 23.3604H9.00462C9.25042 23.3604 9.48616 23.458 9.65997 23.6318C9.83378 23.8056 9.93143 24.0414 9.93143 24.2872C9.93143 24.533 9.83378 24.7687 9.65997 24.9425C9.48616 25.1163 9.25042 25.214 9.00462 25.214H5.45513C5.20933 25.214 4.97359 25.1163 4.79978 24.9425C4.62597 24.7687 4.52832 24.533 4.52832 24.2872C4.52832 24.0414 4.62597 23.8056 4.79978 23.6318C4.97359 23.458 5.20933 23.3604 5.45513 23.3604H7.24959H7.21016Z" fill="#0078BE"/>
</g>
<defs>
<clipPath id="clip0_417_8973">
<rect width="26" height="31.6792" fill="white" transform="translate(0.722656 0.958984)"/>
</clipPath>
</defs>
</svg>
