<svg width="38" height="28" viewBox="0 0 38 28" fill="none" xmlns="http://www.w3.org/2000/svg">
<g clip-path="url(#clip0_417_8982)">
<path d="M36.4734 11.566L35.3147 8.45937L34.3158 5.67238L32.9872 2.11622C32.8375 1.63495 32.5035 1.23245 32.058 0.996631C31.6126 0.760809 31.0919 0.710821 30.6098 0.857585C29.7607 1.14727 28.8517 1.47692 27.7628 1.92643C27.3892 2.07812 27.075 2.34729 26.8677 2.69328C26.6605 3.03928 26.5715 3.44331 26.6141 3.84436C26.6271 3.96859 26.6471 4.09199 26.674 4.21396C26.522 4.24024 26.3666 4.24024 26.2145 4.21396C25.3555 3.94425 24.5164 3.62459 23.887 3.37486C22.9717 2.97584 21.9738 2.80293 20.9776 2.87074C19.9813 2.93854 19.0161 3.24507 18.1632 3.76444C18.1143 3.77859 18.0623 3.77859 18.0134 3.76444L17.5039 3.5247C17.2942 3.41482 17.0744 3.31493 16.8546 3.22503C15.4857 2.76734 14.0118 2.72562 12.6192 3.10515H12.5293C11.8577 3.27869 11.1649 3.35605 10.4715 3.33491C10.3882 2.97104 10.2046 2.6378 9.94153 2.37296C9.67846 2.10813 9.34645 1.92229 8.98315 1.83653C8.48369 1.68669 7.98423 1.52686 7.50475 1.36703L6.60572 1.07735C6.3472 0.973605 6.06927 0.927117 5.79106 0.941084C5.51285 0.955051 5.24097 1.02914 4.99413 1.15825C4.7473 1.28736 4.53138 1.46843 4.36123 1.68899C4.19109 1.90955 4.07076 2.16436 4.00853 2.43588L2.11058 8.36946L0.911875 11.9156L0.442383 13.3641V14.1532C0.524195 14.4826 0.686617 14.7866 0.915039 15.0377C1.14346 15.2888 1.43072 15.4791 1.75097 15.5917L2.31036 15.7815L4.46803 16.4807C4.91067 16.6254 5.39128 16.6005 5.81657 16.4108L5.63677 16.6805C5.5169 16.9002 5.39703 17.13 5.28715 17.3498C5.11741 17.7001 5.02923 18.0843 5.02923 18.4735C5.02923 18.8628 5.11741 19.247 5.28715 19.5973C5.45971 19.94 5.70746 20.2393 6.01189 20.4728C6.31631 20.7063 6.66956 20.868 7.04524 20.9459C7.22011 20.9782 7.39701 20.9982 7.57467 21.0058C7.4891 21.4695 7.53765 21.948 7.71459 22.385C7.89154 22.8221 8.18954 23.1996 8.57359 23.4731C8.95224 23.7669 9.40909 23.9426 9.88702 23.9781C10.365 24.0136 10.8428 23.9075 11.2607 23.6729C11.5366 24.2561 12.0268 24.7105 12.6292 24.9415C13.227 25.1726 13.8894 25.1726 14.4872 24.9415C14.6462 25.4157 14.9324 25.837 15.3148 26.1594C15.6971 26.4819 16.1607 26.6929 16.6549 26.7696H17.0145C17.4537 26.7461 17.8779 26.6024 18.2409 26.3539C18.6038 26.1055 18.8914 25.762 19.0722 25.3611C19.4271 25.5982 19.8442 25.7247 20.2709 25.7247C20.6977 25.7247 21.1148 25.5982 21.4697 25.3611C21.8139 25.126 22.0884 24.8025 22.2642 24.4245C22.44 24.0465 22.5106 23.6281 22.4686 23.2134C23.1464 23.1646 23.7794 22.857 24.2367 22.3543C24.6713 21.8756 24.9132 21.2528 24.9159 20.6062C25.3049 20.7002 25.7102 20.7044 26.101 20.6186C26.4919 20.5328 26.8581 20.3591 27.1719 20.1108C27.4856 19.8624 27.7388 19.5459 27.9122 19.1853C28.0855 18.8246 28.1745 18.4292 28.1724 18.029C28.6567 18.1622 29.1727 18.1163 29.6259 17.8998C30.0791 17.6833 30.439 17.3107 30.6397 16.8503C30.819 16.4652 30.9143 16.0464 30.9194 15.6216C31.1868 15.9498 31.5562 16.1791 31.9688 16.2732C32.3815 16.3674 32.8138 16.3208 33.197 16.1411L33.9062 15.8714C34.3657 15.6915 34.8352 15.5117 35.3047 15.3619C35.7011 15.2662 36.0643 15.0653 36.3561 14.7806C36.6479 14.4958 36.8575 14.1376 36.9629 13.7437V13.0944L36.4734 11.566ZM35.035 13.9434L34.6054 14.1033L32.7275 14.8025C32.6578 14.8493 32.5773 14.8774 32.4936 14.8841C32.41 14.8909 32.326 14.8759 32.2497 14.8408C32.1735 14.8057 32.1076 14.7516 32.0583 14.6837C32.009 14.6157 31.978 14.5363 31.9683 14.4529C30.6764 10.9567 29.3878 7.45712 28.1025 3.95424C28.0604 3.88568 28.0359 3.80782 28.0311 3.72755C28.0263 3.64727 28.0414 3.56704 28.0749 3.49396C28.1085 3.42088 28.1596 3.3572 28.2236 3.30856C28.2877 3.25991 28.3627 3.22779 28.4421 3.21504L30.8795 2.28604H31.0693C31.1883 2.28564 31.3038 2.32609 31.3965 2.40064C31.4892 2.47519 31.5536 2.57931 31.5787 2.6956L32.7375 5.8422L35.4146 13.0944C35.6044 13.5938 35.6044 13.7437 35.035 13.9434ZM19.8714 22.2644L20.6206 22.694C20.7388 22.7598 20.8406 22.8515 20.9184 22.9622C20.9963 23.0729 21.0481 23.1998 21.0701 23.3333C21.0897 23.462 21.0801 23.5934 21.042 23.7179C21.004 23.8424 20.9385 23.9567 20.8503 24.0525C20.783 24.1258 20.7011 24.1843 20.61 24.2243C20.5189 24.2643 20.4204 24.2849 20.3209 24.2849C20.2214 24.2849 20.1229 24.2643 20.0318 24.2243C19.9407 24.1843 19.8588 24.1258 19.7915 24.0525C20.0274 23.4844 20.0557 22.8513 19.8714 22.2644ZM6.19616 2.49581L6.73558 2.66563L8.53364 3.28496C8.62176 3.29051 8.70692 3.31886 8.78078 3.36724C8.85464 3.41562 8.91466 3.48237 8.95495 3.56093C8.99524 3.6395 9.01442 3.72719 9.01061 3.8154C9.00679 3.90361 8.98012 3.98932 8.9332 4.06412L5.52689 14.6427C5.52323 14.7273 5.4977 14.8095 5.45278 14.8812C5.40787 14.953 5.3451 15.0119 5.27062 15.0521C5.19614 15.0924 5.1125 15.1127 5.02785 15.1109C4.9432 15.1092 4.86045 15.0855 4.78769 15.0423L2.2804 14.2231C2.16288 14.2012 2.05818 14.1352 1.98764 14.0387C1.91711 13.9421 1.88605 13.8223 1.90081 13.7037C1.90081 13.6338 1.90081 13.5339 1.97073 13.444L5.34708 2.94533C5.38241 2.74775 5.48905 2.57002 5.64676 2.44587C5.82958 2.39203 6.02605 2.40989 6.19616 2.49581ZM22.3986 13.3441C22.2926 13.2817 22.1742 13.2432 22.0517 13.2311C21.9293 13.219 21.8056 13.2337 21.6894 13.2742C21.5948 13.3103 21.5093 13.3665 21.4385 13.4389C21.3678 13.5114 21.3137 13.5983 21.2799 13.6937C21.2382 13.787 21.2163 13.8879 21.2155 13.9901C21.2148 14.0923 21.2353 14.1935 21.2756 14.2873C21.316 14.3812 21.3754 14.4657 21.45 14.5354C21.5247 14.6052 21.613 14.6587 21.7094 14.6926L24.9259 16.4507L26.0747 17.08C26.2147 17.1472 26.34 17.2415 26.4431 17.3576C26.5463 17.4736 26.6253 17.6091 26.6755 17.756C26.7257 17.903 26.7462 18.0584 26.7356 18.2134C26.7251 18.3683 26.6838 18.5196 26.6141 18.6583C26.539 18.7998 26.4351 18.924 26.3092 19.0229C26.1833 19.1219 26.038 19.1934 25.8828 19.2329C25.7276 19.2724 25.5659 19.279 25.408 19.2523C25.2501 19.2256 25.0995 19.1662 24.9659 19.0779L21.9691 17.4696L20.4108 16.6205C20.3319 16.5721 20.2482 16.532 20.1611 16.5007C19.9899 16.4302 19.7981 16.4294 19.6264 16.4985C19.4546 16.5675 19.3167 16.7009 19.2421 16.8703C19.156 17.0295 19.1361 17.2162 19.1866 17.39C19.237 17.5639 19.3538 17.7108 19.5118 17.7993C19.6816 17.9092 19.8614 18.009 20.0512 18.0989L21.0501 18.6483C21.6495 18.968 22.2588 19.2976 22.8482 19.6473C23.0407 19.7443 23.2018 19.8939 23.3127 20.0789C23.4235 20.2638 23.4796 20.4764 23.4744 20.692C23.4691 20.9075 23.4028 21.1172 23.2831 21.2965C23.1634 21.4758 22.9953 21.6175 22.7982 21.705C22.6382 21.7705 22.4658 21.7999 22.2932 21.7913C22.1206 21.7826 21.952 21.7362 21.7993 21.6551L19.4518 20.4065L18.333 19.8071L18.0733 19.6772C17.9812 19.6398 17.883 19.6195 17.7836 19.6173C17.6562 19.6205 17.5321 19.6585 17.4247 19.7272C17.3173 19.7959 17.2307 19.8926 17.1743 20.0069C17.1444 20.0605 17.1209 20.1175 17.1044 20.1767C16.9861 19.6281 16.6914 19.1334 16.2653 18.7682C15.9778 18.5334 15.6447 18.3606 15.2871 18.2609C14.9295 18.1612 14.5551 18.1367 14.1875 18.1888C13.6881 16.5107 13.0787 16.0512 11.3106 16.0312C11.2238 15.5734 11.0252 15.1441 10.7324 14.7816C10.4396 14.4191 10.0617 14.1346 9.63245 13.9534C9.26145 13.8068 8.8621 13.7459 8.46425 13.7753C8.0664 13.8047 7.68034 13.9236 7.33493 14.1232C7.3776 13.8351 7.44443 13.5511 7.53471 13.2742C8.41376 10.4672 9.31279 7.67022 10.2218 4.88323L10.2817 4.81331C11.1496 4.82616 12.0156 4.72882 12.859 4.52362L13.4683 4.40375C14.5608 4.15691 15.7039 4.27263 16.7248 4.73339L16.4451 5.0031C16.0655 5.3727 15.6959 5.73232 15.3263 6.09193L14.9567 6.47152C14.3474 7.08086 13.728 7.72017 13.1486 8.37945C12.3295 9.32843 12.4294 9.68804 13.2385 10.5271C13.7316 11.0706 14.3692 11.4626 15.0767 11.6572C15.7843 11.8517 16.5326 11.8409 17.2342 11.6259C17.7637 11.4861 18.2831 11.3063 18.7925 11.1265C19.302 10.9467 19.6017 10.8368 20.0212 10.7169C20.5701 10.565 21.1319 10.4647 21.6994 10.4172C21.9219 10.4166 22.1401 10.4789 22.3287 10.5971L22.5785 10.7269C23.7372 11.3263 24.9459 11.9356 26.0947 12.5849C26.9937 13.0944 27.9227 13.6637 28.8317 14.2831C29.0971 14.4432 29.3055 14.6827 29.4274 14.9677C29.5493 15.2527 29.5785 15.5688 29.511 15.8714C29.4959 16.0178 29.4488 16.1591 29.3728 16.2851C29.2968 16.4112 29.1939 16.5189 29.0714 16.6006C28.9395 16.6464 28.7988 16.6613 28.6602 16.6439C28.5216 16.6266 28.3889 16.5776 28.2723 16.5007C27.3733 16.0312 26.4842 15.5018 25.5952 15.0522L23.7772 14.0533L22.3986 13.3441ZM6.63569 18.029C6.95534 17.3498 7.34492 16.6205 7.85437 15.7415C7.98587 15.5209 8.19725 15.3595 8.44464 15.2907C8.69203 15.2218 8.95642 15.2509 9.18293 15.3719C9.31014 15.4309 9.42437 15.5145 9.519 15.618C9.61362 15.7214 9.68675 15.8427 9.73414 15.9746C9.78154 16.1066 9.80225 16.2467 9.79508 16.3867C9.78791 16.5267 9.75301 16.6639 9.69238 16.7904C9.28283 17.6095 8.85329 18.4086 8.52365 18.998C8.43426 19.1617 8.30079 19.2972 8.13836 19.389C7.97594 19.4808 7.79105 19.5253 7.60464 19.5174H7.63461C7.45315 19.5182 7.27449 19.4727 7.11546 19.3853C6.95642 19.298 6.82225 19.1715 6.72559 19.018C6.62568 18.8753 6.56482 18.7089 6.54905 18.5354C6.53328 18.362 6.56315 18.1874 6.63569 18.029ZM9.10302 21.2655C9.13947 21.118 9.18963 20.9742 9.25286 20.836C9.72235 19.927 10.2518 19.018 10.6913 18.1189C10.7487 17.983 10.834 17.8606 10.9415 17.7596C11.049 17.6586 11.1764 17.5811 11.3156 17.5322C11.4548 17.4833 11.6027 17.464 11.7498 17.4756C11.8968 17.4872 12.0399 17.5294 12.1697 17.5995C12.2992 17.6708 12.4128 17.7677 12.5036 17.8843C12.5943 18.0009 12.6605 18.1348 12.6978 18.2778C12.7352 18.4208 12.7431 18.5699 12.721 18.7161C12.6989 18.8622 12.6473 19.0023 12.5693 19.1278C12.0798 20.0668 11.5704 21.0058 11.0809 21.9348C10.9782 22.1549 10.7989 22.3301 10.5764 22.4275C10.3539 22.5249 10.1036 22.538 9.87219 22.4642C9.64655 22.406 9.445 22.2781 9.29617 22.0988C9.14733 21.9195 9.05878 21.6978 9.04308 21.4653L9.10302 21.2655ZM12.6292 22.1446C12.9189 21.5352 13.2585 20.8959 13.6981 20.1467C13.7895 19.9832 13.9252 19.8488 14.0894 19.7587C14.2537 19.6686 14.44 19.6265 14.627 19.6373C14.8084 19.6358 14.9872 19.6805 15.1465 19.7671C15.3848 19.8895 15.5672 20.0985 15.6564 20.3511C15.7455 20.6037 15.7346 20.8808 15.626 21.1257C15.3363 21.735 15.0066 22.3643 14.5471 23.1235C14.479 23.2548 14.3796 23.3672 14.2576 23.4509C14.1356 23.5345 13.9949 23.5868 13.8479 23.603C13.6364 23.6143 13.4255 23.5717 13.235 23.4791C13.0445 23.3865 12.8808 23.2469 12.7591 23.0736C12.663 22.9412 12.601 22.7872 12.5783 22.6253C12.5557 22.4633 12.5731 22.2982 12.6292 22.1446ZM23.018 9.27848C22.5467 9.01974 22.0172 8.88565 21.4796 8.8889C21.0421 8.89503 20.6079 8.96571 20.191 9.09868C19.6816 9.2585 19.1921 9.43831 18.6727 9.61811L17.7237 9.95775C17.0085 10.2614 16.219 10.3449 15.4562 10.1975C14.9667 10.057 14.5313 9.77143 14.2075 9.37837L14.2974 9.27848C14.4319 9.10789 14.5753 8.94451 14.7269 8.78901L15.7259 7.79009C16.545 6.97098 17.3941 6.13188 18.2931 5.38269C18.9663 4.79136 19.7975 4.40929 20.6846 4.28331C21.5718 4.15734 22.4764 4.29292 23.2877 4.67346L23.6173 4.88323L24.7261 5.33275C25.4721 5.68828 26.313 5.79338 27.1235 5.63242L29.9904 13.384C28.9739 12.5045 27.837 11.7746 26.6141 11.2164L25.8949 10.8468L25.2955 10.5271L23.018 9.27848ZM16.3851 22.8438C16.5119 22.6715 16.6716 22.5263 16.8552 22.4165C17.0387 22.3067 17.2423 22.2347 17.454 22.2045C17.6232 22.1925 17.7928 22.2238 17.9466 22.2955C18.1003 22.3671 18.2334 22.4768 18.333 22.6141C18.4066 22.7561 18.445 22.9136 18.445 23.0736C18.445 23.2335 18.4066 23.3911 18.333 23.5331C18.1688 23.915 17.9854 24.2884 17.7836 24.6519C17.7292 24.8678 17.5975 25.0562 17.4133 25.1814C17.2292 25.3066 17.0055 25.3599 16.7847 25.3311C16.5431 25.2712 16.3224 25.1465 16.1464 24.9705C15.9704 24.7945 15.8457 24.5738 15.7858 24.3322V24.2423C15.7844 23.9806 15.8369 23.7213 15.94 23.4807C16.0431 23.2401 16.1947 23.0233 16.3851 22.8438Z" fill="#0078BE" stroke="#0078BE" stroke-width="0.399568" stroke-miterlimit="10"/>
</g>
<defs>
<clipPath id="clip0_417_8982">
<rect width="37" height="26.4814" fill="white" transform="translate(0.222656 0.557617)"/>
</clipPath>
</defs>
</svg>
